<?xml version="1.0" standalone="no"?>
<!DOCTYPE svg PUBLIC "-//W3C//DTD SVG 20010904//EN"
 "http://www.w3.org/TR/2001/REC-SVG-20010904/DTD/svg10.dtd">
<svg version="1.0" xmlns="http://www.w3.org/2000/svg"
 width="650.000000pt" height="550.000000pt" viewBox="0 0 650.000000 550.000000"
 preserveAspectRatio="xMidYMid meet"
 class="absolute top-0 left-1/2 -translate-y-1/4 -translate-x-1/2 w-[300px] sm:w-[400px] md:w-[650px] h-auto">
<defs>
              <linearGradient id="grad1" x1="0%" x2="0%" y1="0%" y2="100%">
                <stop offset="0%" stop-color="#a72900" />
                <stop offset="100%" stop-color="orange" />
              </linearGradient>
            </defs>
<g transform="translate(0.000000,550.000000) scale(0.100000,-0.100000)"
fill="url(#grad1)" stroke="none">
<path d="M820 5344 c-405 -17 -628 -35 -642 -51 -6 -8 -13 -35 -16 -61 -7 -78
8 -88 163 -107 184 -22 231 -37 282 -91 46 -47 65 -98 86 -224 17 -109 17
-3314 0 -3415 -22 -126 -41 -174 -90 -226 -67 -72 -129 -90 -418 -127 -59 -7
-60 -8 -69 -45 -6 -23 -6 -51 0 -74 l9 -37 843 0 843 -1 10 39 c6 23 7 53 2
74 l-8 36 -140 21 c-78 12 -164 30 -192 39 -111 37 -172 108 -198 232 -24 114
-37 490 -33 1009 3 551 1 534 75 554 47 13 353 14 419 2 92 -18 162 -51 220
-104 61 -55 178 -227 469 -687 92 -146 221 -344 287 -440 65 -96 213 -317 328
-490 247 -372 353 -512 513 -677 179 -183 342 -290 527 -344 65 -19 107 -22
308 -26 l232 -5 0 75 0 76 -37 6 c-203 29 -289 77 -501 280 -254 243 -459 546
-936 1385 -242 424 -430 749 -505 870 -112 182 -135 234 -113 266 4 6 58 36
120 67 379 188 616 466 703 823 31 126 32 378 1 511 -87 379 -338 637 -752
773 -131 43 -229 64 -410 87 -161 21 -967 25 -1380 7z m1130 -210 c225 -42
404 -135 550 -285 211 -216 308 -538 271 -902 -28 -265 -109 -454 -260 -602
-198 -194 -434 -255 -926 -241 -213 6 -287 14 -307 34 -24 24 -29 210 -26
1027 3 971 -1 915 79 956 80 40 436 48 619 13z"/>
<path d="M4945 3863 c-232 -7 -492 -40 -670 -84 -483 -121 -902 -403 -1147
-774 -59 -90 -158 -276 -158 -299 0 -10 56 -100 234 -376 23 -36 65 -100 92
-142 27 -43 52 -78 57 -78 4 0 7 44 7 98 0 107 28 304 60 424 70 266 184 470
364 657 244 251 546 380 957 411 384 29 713 -50 924 -221 136 -110 222 -241
296 -449 l37 -105 53 -3 c85 -4 85 -5 64 149 -9 74 -19 143 -21 154 -8 46 -44
422 -44 461 l0 41 -62 7 c-35 4 -117 18 -183 32 -374 77 -617 104 -860 97z"/>
<path d="M5029 1628 c-13 -25 -11 -61 6 -84 11 -17 29 -23 82 -28 161 -15 321
-39 363 -53 68 -23 100 -51 129 -112 l26 -56 3 -336 c4 -354 -2 -419 -39 -497
-57 -116 -247 -174 -611 -188 l-188 -7 0 -72 0 -72 83 -7 c227 -18 650 36
1052 135 88 22 188 42 222 46 51 5 62 9 67 27 4 16 -5 30 -39 61 -85 75 -105
180 -105 545 0 472 33 550 247 582 46 6 83 17 91 26 13 17 16 81 4 97 -4 6
-248 10 -695 10 -636 0 -690 -1 -698 -17z"/>
</g>
</svg>
